<?xml version="1.0" standalone="no"?>
<!DOCTYPE svg PUBLIC "-//W3C//DTD SVG 20010904//EN"
 "http://www.w3.org/TR/2001/REC-SVG-20010904/DTD/svg10.dtd">
<svg version="1.0" xmlns="http://www.w3.org/2000/svg"
 width="400.000000pt" height="400.000000pt" viewBox="0 0 400.000000 400.000000"
 preserveAspectRatio="xMidYMid meet">
<metadata>
Created by potrace 1.14, written by Peter Selinger 2001-2017
</metadata>
<g transform="translate(0.000000,400.000000) scale(0.100000,-0.100000)"
fill="#000000" stroke="none">
<path d="M1739 3845 c-2 -2 -37 -6 -77 -9 -495 -42 -1002 -343 -1305 -773
-145 -207 -269 -505 -302 -728 -4 -27 -9 -61 -12 -75 -17 -108 -21 -318 -9
-427 13 -121 18 -149 42 -247 63 -255 169 -479 321 -684 67 -90 252 -277 338
-343 229 -175 531 -313 775 -354 19 -3 49 -8 65 -11 17 -3 44 -7 60 -10 59 -9
373 -11 431 -3 130 20 170 27 204 36 14 3 32 7 40 9 24 5 122 35 155 47 17 7
32 12 35 13 25 5 183 77 231 105 27 16 52 29 54 29 10 0 204 136 254 178 258
219 448 494 556 804 63 178 102 383 101 518 -1 47 1 51 31 65 68 32 148 138
195 255 52 130 57 148 62 234 9 166 -107 356 -268 436 -32 17 -65 30 -72 30
-7 0 -18 19 -25 42 -26 100 -100 200 -182 246 -69 39 -164 60 -222 49 -30 -6
-41 12 -48 76 -6 61 -34 110 -86 152 -32 25 -93 55 -103 49 -4 -3 -16 13 -28
35 -26 51 -64 89 -110 110 -19 9 -49 29 -65 44 -30 28 -93 65 -124 73 -9 2
-36 8 -61 14 -60 15 -161 5 -212 -21 l-40 -20 -107 20 c-58 11 -126 23 -151
27 -50 7 -336 15 -341 9z"/>
</g>
</svg>
