
<svg version="1.1" class="svg-attention" xmlns="http://www.w3.org/2000/svg" xmlns:xlink="http://www.w3.org/1999/xlink" x="0px"
	 y="0px" width="16px" height="15px" viewBox="0 0 16 15" enable-background="new 0 0 16 15" xml:space="preserve">
<path class="outer" fill="#FFFFFF" stroke="#FFFFFF" stroke-linecap="square" stroke-linejoin="bevel" d="M8.9,2.5
	c-0.4-0.7-1.3-0.7-1.7,0l-5.8,10C1,13.1,1.4,14,2.2,14h11.6c0.8,0,1.3-0.8,0.9-1.5L8.9,2.5z"/>
<path class="main" fill-rule="evenodd" clip-rule="evenodd" fill="#AAAEB3" d="M8.4,2.7c-0.2-0.3-0.7-0.3-0.9,0l-5.8,10
	c-0.2,0.3,0,0.8,0.4,0.8h11.6c0.4,0,0.6-0.4,0.4-0.8L8.4,2.7z M7.5,6.3V9h1V6.3H7.5z M7.5,10.3v1.3h1v-1.3H7.5z"/>
</svg>
