<svg width="24" height="24" viewBox="0 0 24 24" fill="none" xmlns="http://www.w3.org/2000/svg">
    <path
        d="M8.18229 9.97505C8.18229 7.24342 9.71458 6.27064 11.1795 6.02745C11.2287 5.73395 11.4314 5.49247 11.7022 5.3883C11.7943 5.35285 11.8944 5.3333 11.9989 5.33301L12.0013 5.33301L12.0037 5.33301C12.1663 5.33345 12.3171 5.37937 12.439 5.4571C12.6384 5.58037 12.7818 5.78533 12.8227 6.02525C14.2882 6.26222 15.8203 7.23002 15.8203 9.96932C15.8203 12.9389 16.5393 13.495 17.5358 14.2658C17.6329 14.3409 17.7327 14.4181 17.8346 14.4997V15.333H6.16797V14.4997C6.26854 14.4198 6.36688 14.3443 6.46261 14.2708C7.46576 13.5003 8.18229 12.95 8.18229 9.97505Z"
        fill="#AAAEB3" />
    <path
        d="M13.6654 17C13.6654 17.9205 12.9192 18.6667 11.9987 18.6667C11.0782 18.6667 10.332 17.9205 10.332 17H13.6654Z"
        fill="#AAAEB3" />
</svg>
