<svg width="18" height="18" viewBox="0 0 18 18" fill="none" xmlns="http://www.w3.org/2000/svg">
<path fill-rule="evenodd" clip-rule="evenodd" d="M13.0719 4.56737L13.9464 4.02844L15.7227 6.96557L14.4656 7.72006C14.247 7.85479 14.083 8.01647 13.9464 8.23204C13.5091 8.93263 13.7551 9.87575 14.4656 10.3069L15.75 11.0344L13.9464 13.9716L13.0719 13.4326C12.8259 13.2979 12.5253 13.2171 12.252 13.2171C11.4049 13.2171 10.7217 13.8907 10.7217 14.726V15.75H7.25101V14.726C7.25101 14.4566 7.16903 14.1871 7.03239 13.9446C6.59514 13.2171 5.66599 13.0015 4.92814 13.4326L4.05364 13.9716L2.25 11.0614L3.50708 10.3069C3.72571 10.1722 3.88968 10.0105 4.02632 9.79491C4.46356 9.09431 4.21761 8.1512 3.50708 7.72006L2.25 6.96557L4.05364 4.02844L4.92814 4.56737C5.14676 4.7021 5.44737 4.78293 5.72065 4.78293C6.56781 4.78293 7.25101 4.10928 7.25101 3.27395V2.25H10.749V3.27395C10.749 3.54341 10.831 3.81287 10.9676 4.05539C11.4049 4.78293 12.334 4.9985 13.0719 4.56737ZM9 12C7.33065 12 6 10.6506 6 8.98795C6 7.3253 7.35484 6 9.02419 6C10.6935 6 12 7.3494 12 9.01205C12 10.6747 10.6452 12 9 12Z" fill="#0B0B0B"/>
</svg>
