<svg width="18" height="18" viewBox="0 0 18 18" fill="none" xmlns="http://www.w3.org/2000/svg">
<path fill-rule="evenodd" clip-rule="evenodd" d="M9 18C13.9706 18 18 13.9706 18 9C18 4.02944 13.9706 0 9 0C4.02944 0 0 4.02944 0 9C0 13.9706 4.02944 18 9 18ZM9.58301 9.1423V4H8.58301V9.14242L6.17007 6.72948L5.46297 7.43659L8.44068 10.4143C8.48497 10.4586 8.5327 10.4974 8.58301 10.5306V10.5329H8.58646C8.88713 10.7295 9.27877 10.7295 9.57944 10.5329H9.58301V10.5305C9.63327 10.4973 9.68096 10.4586 9.72522 10.4143L12.7029 7.43659L11.9958 6.72948L9.58301 9.1423ZM5 12.3H13.1661V13.3H5V12.3Z" fill="#0B0B0B"/>
</svg>
