<svg width="98" height="15" viewBox="0 0 98 15" fill="none" xmlns="http://www.w3.org/2000/svg">
<rect x="0.75" y="0.25" width="96.5" height="14.5" rx="2.25" stroke="#AAAEB3" stroke-width="0.5"/>
<path d="M5.74055 11.5V3.635H10.8666V5.021H7.51155V6.858H10.1956V8.156H7.51155V10.114H11.0426V11.5H5.74055ZM12.2655 11.5L14.7625 7.463L12.4525 3.635H14.4655L15.9615 6.253L17.4465 3.635H19.2725L17.0285 7.408L19.5145 11.5H17.4905L15.7855 8.574L14.0915 11.5H12.2655ZM21.1888 11.5V3.635H23.9058C25.8198 3.635 26.9088 4.482 26.9088 6.143V6.187C26.9088 7.848 25.7538 8.64 23.9608 8.64H22.9598V11.5H21.1888ZM22.9598 7.397H23.8618C24.7308 7.397 25.1928 6.979 25.1928 6.198V6.154C25.1928 5.318 24.7088 4.988 23.8618 4.988H22.9598V7.397ZM28.5745 11.5V3.635H33.7005V5.021H30.3455V6.858H33.0295V8.156H30.3455V10.114H33.8765V11.5H28.5745ZM35.6165 11.5V3.635H38.4325C40.2915 3.635 41.4685 4.394 41.4685 6.022V6.066C41.4685 7.254 40.7755 7.881 39.8515 8.156L41.9305 11.5H40.0385L38.1575 8.464H37.3875V11.5H35.6165ZM37.3875 7.254H38.3885C39.2795 7.254 39.7305 6.88 39.7305 6.121V6.077C39.7305 5.274 39.2465 4.999 38.3885 4.999H37.3875V7.254ZM43.5512 11.5V3.635H45.3442V11.5H43.5512ZM47.5843 11.5V3.635H49.9383L51.7753 8.53L53.5903 3.635H55.9003V11.5H54.1293V5.978L51.9513 11.5H51.3683L49.1793 5.978V11.5H47.5843ZM58.1068 11.5V3.635H63.2328V5.021H59.8778V6.858H62.5618V8.156H59.8778V10.114H63.4088V11.5H58.1068ZM65.1488 11.5V3.635H67.2168L70.2088 8.816V3.635H71.7928V11.5H70.0108L66.7328 5.901V11.5H65.1488ZM75.5247 11.5V5.021H73.4017V3.635H79.4407V5.021H77.3177V11.5H75.5247ZM79.6587 11.5L82.2437 3.635H84.5647L87.1167 11.5H85.2577L84.7187 9.751H81.8697L81.3307 11.5H79.6587ZM83.2997 5.087L82.2547 8.486H84.3337L83.2997 5.087ZM88.6917 11.5V3.635H90.4737V10.103H93.6747V11.5H88.6917Z" fill="#AAAEB3"/>
</svg>
