<svg width="20" height="20" viewBox="0 0 20 20" fill="none" xmlns="http://www.w3.org/2000/svg">
<path d="M11.6673 10C11.6673 10.9205 10.9211 11.6667 10.0007 11.6667C9.08018 11.6667 8.33398 10.9205 8.33398 10C8.33398 9.07953 9.08018 8.33333 10.0007 8.33333C10.9211 8.33333 11.6673 9.07953 11.6673 10Z" fill="#AAAEB3"/>
<path fill-rule="evenodd" clip-rule="evenodd" d="M10 15C13.3137 15 16.3137 13.3333 19 10C16.3137 6.66667 13.3137 5 10 5C6.68629 5 3.68629 6.66667 1 10C3.68629 13.3333 6.68629 15 10 15ZM10.0007 13.125C11.7265 13.125 13.1257 11.7259 13.1257 10C13.1257 8.27411 11.7265 6.875 10.0007 6.875C8.27476 6.875 6.87565 8.27411 6.87565 10C6.87565 11.7259 8.27476 13.125 10.0007 13.125Z" fill="#AAAEB3"/>
</svg>
