<?xml version="1.0" encoding="utf-8"?>
<!-- Generator: Adobe Illustrator 27.2.0, SVG Export Plug-In . SVG Version: 6.00 Build 0)  -->
<svg version="1.1" class="svg-folder" xmlns="http://www.w3.org/2000/svg" xmlns:xlink="http://www.w3.org/1999/xlink" x="0px" y="0px"
	 width="24px" height="25px" viewBox="0 0 24 25" enable-background="new 0 0 24 25" xml:space="preserve">
<path id="folder" fill-rule="evenodd" clip-rule="evenodd" fill="#0B0B0B" d="M9.2,5.5H4v2v2h16v-2H10V6.3C10,5.9,9.6,5.5,9.2,5.5z
	 M4,10.5h16v8.4c0,0.9-0.7,1.6-1.6,1.6H5.6c-0.9,0-1.6-0.7-1.6-1.6V10.5z M10.5,14.6c0-0.9,0.7-1.6,1.6-1.6c0.9,0,1.6,0.7,1.6,1.6
	c0,0.9-0.7,1.6-1.6,1.6S10.5,15.5,10.5,14.6z M12.1,12c-1.4,0-2.6,1.2-2.6,2.6s1.2,2.6,2.6,2.6c0.5,0,1-0.2,1.5-0.4l1.1,1.1l0.4,0.4
	l0.7-0.7l-0.4-0.4l-1.1-1.1c0.3-0.4,0.4-0.9,0.4-1.5C14.7,13.2,13.6,12,12.1,12z"/>
</svg>
