<svg class="svg-globe" width="24" height="24" viewBox="0 0 24 24" fill="none" xmlns="http://www.w3.org/2000/svg">
    <path fill-rule="evenodd" clip-rule="evenodd" d="M11.9989 6.0001L12 6L12.0011 6.0001C12.0019 6.00019 12.0037 6.00049 12.007 6.00137C12.0133 6.00307 12.0275 6.00775 12.05 6.02003C12.0971 6.04571 12.1742 6.10153 12.2735 6.2135C12.4775 6.4436 12.7069 6.8336 12.9198 7.40138C13.2646 8.32074 13.5157 9.57049 13.5969 11H10.4031C10.4843 9.57049 10.7354 8.32074 11.0802 7.40138C11.2931 6.8336 11.5225 6.4436 11.7265 6.2135C11.8258 6.10153 11.9029 6.04571 11.95 6.02003C11.9725 6.00775 11.9867 6.00307 11.993 6.00137C11.9963 6.00049 11.9981 6.00019 11.9989 6.0001ZM8.40023 11C8.48336 9.36516 8.76863 7.8695 9.20752 6.69913L9.2127 6.68534C7.58467 7.54093 6.39792 9.12266 6.08296 11H8.40023ZM6.08296 13H8.40023C8.48336 14.6348 8.76863 16.1305 9.20752 17.3009L9.2127 17.3147C7.58467 16.4591 6.39792 14.8773 6.08296 13ZM10.4031 13H13.5969C13.5157 14.4295 13.2646 15.6793 12.9198 16.5986C12.7069 17.1664 12.4775 17.5564 12.2735 17.7865C12.1742 17.8985 12.0971 17.9543 12.05 17.98C12.0275 17.9923 12.0133 17.9969 12.007 17.9986C12.0037 17.9995 12.0019 17.9998 12.0011 17.9999L12 18L11.9989 17.9999L11.9964 17.9995L11.993 17.9986C11.9867 17.9969 11.9725 17.9923 11.95 17.98C11.9029 17.9543 11.8258 17.8985 11.7265 17.7865C11.5225 17.5564 11.2931 17.1664 11.0802 16.5986C10.7354 15.6793 10.4843 14.4295 10.4031 13ZM15.5998 13C15.5166 14.6348 15.2314 16.1305 14.7925 17.3009L14.7873 17.3147C16.4153 16.4591 17.6021 14.8773 17.917 13H15.5998ZM17.917 11C17.6021 9.12266 16.4153 7.54093 14.7873 6.68534L14.7925 6.69913C15.2314 7.8695 15.5166 9.36516 15.5998 11H17.917ZM20 12C20 16.4183 16.4183 20 12 20C7.58172 20 4 16.4183 4 12C4 7.58172 7.58172 4 12 4C16.4183 4 20 7.58172 20 12Z" fill="#0B0B0B"/>
</svg>
