<svg width="10" height="10" viewBox="0 0 10 10" fill="none" xmlns="http://www.w3.org/2000/svg">
<g clip-path="url(#clip0_4308_21170)">
<path fill-rule="evenodd" clip-rule="evenodd" d="M8.29194 1.70706C9.09927 2.51438 9.09927 3.82331 8.29194 4.63064L7.47499 5.44759L7.12143 5.80114L7.82854 6.50825L8.18209 6.1547L8.99905 5.33774C10.1969 4.13989 10.1969 2.1978 8.99905 0.999949C7.8012 -0.1979 5.8591 -0.1979 4.66126 0.999949L3.8443 1.81691L3.49075 2.17046L4.19785 2.87757L4.55141 2.52401L5.36836 1.70706C6.17569 0.899731 7.48462 0.899731 8.29194 1.70706ZM5.9421 3.45541L5.58855 3.80896L3.69692 5.7006L3.34337 6.05415L4.05047 6.76126L4.40403 6.4077L6.29566 4.51607L6.64921 4.16252L5.9421 3.45541ZM5.44759 7.47589L5.80114 7.12234L6.50825 7.82944L6.1547 8.183L5.33774 8.99995C4.13989 10.1978 2.1978 10.1978 0.999949 8.99995C-0.1979 7.8021 -0.1979 5.86001 0.999949 4.66216L1.8169 3.8452L2.17046 3.49165L2.87756 4.19876L2.52401 4.55231L1.70706 5.36927C0.899731 6.17659 0.899731 7.48552 1.70706 8.29285C2.51438 9.10017 3.82331 9.10017 4.63064 8.29284L5.44759 7.47589Z" fill="#383B3E"/>
</g>
<defs>
<clipPath id="clip0_4308_21170">
<rect width="10" height="10" fill="white"/>
</clipPath>
</defs>
</svg>
