<svg version="1.1" class="svg-info" xmlns="http://www.w3.org/2000/svg" xmlns:xlink="http://www.w3.org/1999/xlink" x="0px" y="0px"
	 width="12px" height="12px" viewBox="0 0 12 12" enable-background="new 0 0 12 12" xml:space="preserve">
<path id="info" fill-rule="evenodd" clip-rule="evenodd" fill="#0B0B0B" d="M6,1.8C3.7,1.8,1.8,3.7,1.8,6s1.9,4.2,4.2,4.2
	s4.2-1.9,4.2-4.2S8.3,1.8,6,1.8z M1.2,6c0-2.7,2.1-4.8,4.8-4.8s4.8,2.1,4.8,4.8S8.7,10.8,6,10.8S1.2,8.7,1.2,6z M5.2,5h0.3H6h0.3
	v0.3V8h0.5h0.3v0.6H6.8H6H5.2H4.9V8h0.3h0.5V5.6H5.5H5.2V5z M6.3,3.5V3.2H5.7v0.3V4v0.3h0.6V4C6.3,4,6.3,3.5,6.3,3.5z"/>
</svg>
