<svg width="65" height="15" viewBox="0 0 65 15" fill="none" xmlns="http://www.w3.org/2000/svg">
<path d="M0 2C0 0.89543 0.895431 0 2 0H62.25C63.3546 0 64.25 0.895431 64.25 2V13C64.25 14.1046 63.3546 15 62.25 15H2C0.895431 15 0 14.1046 0 13V2Z" fill="#6B01B3"/>
<path fill-rule="evenodd" clip-rule="evenodd" d="M9.625 3L15.25 12H4L9.625 3Z" fill="white"/>
<path d="M9.625 5.8125L9.625 8.625" stroke="#6B01B3" stroke-width="1.2" stroke-linejoin="round"/>
<path d="M9.625 9.75L9.625 10.875" stroke="#6B01B3" stroke-width="1.2" stroke-linejoin="round"/>
<path d="M19.2613 12V2.705H22.7973C25.3453 2.705 26.5283 3.836 26.5283 5.812V5.864C26.5283 7.814 25.2153 8.867 22.9143 8.867H21.9133V12H19.2613ZM21.9133 7.047H22.6803C23.5383 7.047 23.9933 6.644 23.9933 5.877V5.825C23.9933 5.032 23.5253 4.707 22.6933 4.707H21.9133V7.047ZM28.7417 12V2.705H31.4197V6.254H34.4747V2.705H37.1397V12H34.4747V8.334H31.4197V12H28.7417ZM39.9361 12V2.705H43.4071L45.1881 7.658L46.9691 2.705H50.3751V12H47.7231V6.215L45.4481 12H44.5641L42.3151 6.215V12H39.9361ZM53.187 12V2.705H59.609V4.759H55.839V6.358H58.842V8.256H55.839V9.946H59.817V12H53.187Z" fill="white"/>
</svg>
