<svg class="svg-logo" viewBox="0 0 94 24" fill="none" xmlns="http://www.w3.org/2000/svg">
<path d="M81.5003 23.8H79.3003C79.3003 23.6 79.3003 23.5 79.3003 23.4C79.3003 21.4 79.3003 19.4 79.3003 17.5C79.3003 17 79.6003 17.1 79.8003 17.1C83.2003 17.1 86.7003 17.1 90.1003 17.1C90.3003 17.1 90.8003 17.1 90.8003 17C90.9003 16.7 90.9003 16.3 90.9003 16C90.9003 15.9 90.7003 15.9 90.6003 15.8C90.4003 15.8 90.3003 15.8 90.1003 15.8C86.7003 15.8 83.4003 15.8 80.0003 15.8C79.8003 15.8 79.6003 15.8 79.3003 15.8V13C79.5003 13 79.7003 13 79.9003 13C83.5003 13 87.0003 13 90.6003 13C92.0003 13 93.1003 14.1 93.2003 15.5C93.2003 16.1 93.2003 16.7 93.2003 17.3C93.2003 18.6 92.3003 19.6 91.0003 19.7C90.9003 19.7 90.9003 19.7 90.7003 19.8C91.5003 21.2 92.4003 22.5 93.2003 23.9C92.4003 23.9 91.6003 23.9 90.9003 23.9C90.8003 23.9 90.6003 23.7 90.5003 23.6C89.7003 22.5 89.0003 21.3 88.3003 20.2C88.1003 19.9 87.9003 19.8 87.5003 19.8C85.7003 19.8 84.0003 19.8 82.2003 19.8C81.7003 19.8 81.6003 20 81.6003 20.4C81.5003 21.4 81.5003 22.6 81.5003 23.8Z" fill="#0B0B0B"/>
<path d="M77.5 21.1V23.8C77.5 23.8 69.9 23.8 66.4 23.8C64.7 23.8 63.5 22.7 63.5 21C63.5 19.3 63.5 17.5 63.5 15.8C63.5 14.5 64.2 13.5 65.4 13.1C65.6 13 65.9 13 66.1 13C69.8 13 77.4 13 77.4 13V15.7C77.4 15.7 69.9 15.7 66.5 15.7C66.1 15.7 65.8 15.9 65.8 16.4C65.8 16.6 65.8 16.8 65.8 17C66 17 77.3 17 77.4 17V19.7C77.4 19.7 66.1 19.7 65.8 19.7V21.1H77.5Z" fill="#0B0B0B"/>
<path d="M59.6001 17V15.7H48.1001V13C48.3001 13 48.5001 13 48.7001 13C52.2001 13 55.8001 13 59.3001 13C60.6001 13 62.0001 14 62.0001 15.6C62.0001 16.2 62.0001 16.8 62.0001 17.3C62.0001 18.8 60.9001 19.8 59.5001 19.8C56.7001 19.8 53.9001 19.8 51.1001 19.8C50.4001 19.8 50.4001 19.8 50.4001 20.5C50.4001 21.6 50.4001 22.7 50.4001 23.9H48.2001V17H59.6001Z" fill="#0B0B0B"/>
<path d="M32.5 15.7V13C32.7 13 32.9 13 33.1 13C36.7 13 40.3 13 43.9 13C45.2 13 46.3 14.1 46.4 15.5C46.4 16.2 46.4 16.9 46.4 17.5C46.3 18.8 45.3 19.7 44 19.7C41.1 19.7 38.2 19.7 35.2 19.7C35.1 19.7 35 19.7 34.8 19.7V23.8H32.6V17C32.8 17 33 17 33.2 17C36.7 17 40.1 17 43.6 17C44.1 17 44.2 16.8 44.2 16.4C44.2 16 44.2 15.7 43.6 15.7C40.2 15.7 36.7 15.7 33.3 15.7C33 15.7 32.8 15.7 32.5 15.7Z" fill="#0B0B0B"/>
<path d="M30.8003 13V23.8H28.3003V21.6C28.1003 21.6 27.9003 21.6 27.8003 21.6C25.9003 21.6 24.0003 21.6 22.0003 21.6C21.7003 21.6 21.5003 21.7 21.3003 22C20.9003 22.6 20.5003 23.1 20.1003 23.7C20.0003 23.8 19.8003 23.9 19.7003 23.9C18.9003 23.9 18.1003 23.9 17.3003 23.9C17.9003 23.1 18.4003 22.4 18.9003 21.7C20.7003 19.2 22.6003 16.8 24.4003 14.3C24.5003 14.1 24.7003 13.9 24.9003 13.7C25.3003 13.2 25.8003 13 26.5003 13C27.8003 13 29.3003 13 30.8003 13ZM28.3003 15.5C27.6003 15.5 27.0003 15.5 26.4003 15.5C26.1003 15.5 25.9003 15.6 25.8003 15.9C25.2003 16.7 24.7003 17.6 24.1003 18.4C24.0003 18.6 23.8003 18.8 23.7003 19.1H28.4003V15.5H28.3003Z" fill="#0B0B0B"/>
<path d="M15.7001 23.7994H13.5001V15.9994H13.4001C12.8001 16.9994 12.1001 18.0994 11.5001 19.0994C10.6001 20.4994 9.7001 21.9994 8.9001 23.3994C8.7001 23.6994 8.5001 23.6994 8.2001 23.7994C7.5001 23.8994 7.1001 23.5994 6.7001 22.9994C5.4001 20.7994 4.0001 18.4994 2.7001 16.2994C2.6001 16.1994 2.6001 16.0994 2.4001 15.9994V23.7994H0.100098C0.100098 23.6994 0.100098 23.4994 0.100098 23.2994C0.100098 19.9994 0.100098 16.6994 0.100098 13.4994C0.100098 13.0994 0.200098 12.8994 0.700098 12.9994C1.5001 12.9994 2.2001 12.9994 3.0001 12.9994C3.4001 12.9994 3.6001 13.0994 3.8001 13.3994C5.1001 15.5994 6.4001 17.6994 7.8001 19.8994C7.9001 19.9994 8.0001 20.0994 8.1001 20.2994C8.2001 20.0994 8.3001 19.9994 8.4001 19.7994C9.7001 17.6994 11.0001 15.4994 12.3001 13.3994C12.5001 13.0994 12.7001 12.8994 13.1001 12.8994C13.9001 12.8994 14.7001 12.8994 15.5001 12.8994C15.8001 12.8994 15.9001 12.8994 15.9001 13.2994C15.9001 16.6994 15.9001 20.0994 15.9001 23.4994C15.8001 23.5994 15.8001 23.6994 15.7001 23.7994Z" fill="#0B0B0B"/>
<path d="M79 11.1994V0.399414C79.9 0.399414 80.9 0.399414 81.8 0.399414C82 0.399414 82.1 0.599414 82.3 0.699414C84.9 2.99941 87.5 5.39941 90.2 7.69941C90.3 7.79941 90.4 7.89941 90.6 7.99941V0.399414H92.9C92.9 0.599414 92.9 0.699414 92.9 0.899414C92.9 4.09941 92.9 7.39941 92.9 10.5994C92.9 11.0994 92.8 11.1994 92.3 11.1994C92.2 11.1994 92.1 11.1994 91.9 11.1994C89.9 11.1994 89.9 11.1994 88.5 9.79941C86.2 7.59941 83.9 5.49941 81.5 3.39941C81.4 3.29941 81.3 3.29941 81.2 3.19941V11.0994L79 11.1994Z" fill="#0B0B0B"/>
<path d="M70.2999 11.1998C68.8999 11.1998 67.5999 11.0998 66.1999 11.1998C64.8999 11.2998 63.3999 10.2998 63.3999 8.3998C63.3999 6.5998 63.3999 4.7998 63.3999 3.0998C63.3999 1.3998 64.7999 0.299805 66.2999 0.299805C68.9999 0.399805 71.7999 0.299805 74.4999 0.299805C76.0999 0.299805 77.2999 1.3998 77.2999 2.9998C77.2999 4.7998 77.2999 6.6998 77.2999 8.4998C77.2999 10.0998 76.1999 11.0998 74.5999 11.1998C73.1999 11.1998 71.6999 11.1998 70.2999 11.1998ZM70.2999 8.3998C71.3999 8.3998 72.3999 8.3998 73.4999 8.3998C74.4999 8.3998 74.8999 7.9998 74.8999 7.0998C74.8999 6.1998 74.8999 5.3998 74.8999 4.4998C74.8999 3.5998 74.3999 3.1998 73.4999 3.1998C71.2999 3.1998 69.1999 3.1998 66.9999 3.1998C66.0999 3.1998 65.5999 3.5998 65.5999 4.4998C65.4999 5.3998 65.5999 6.1998 65.5999 7.0998C65.5999 8.0998 65.9999 8.3998 67.0999 8.3998C68.1999 8.3998 69.2999 8.3998 70.2999 8.3998Z" fill="#0B0B0B"/>
<path d="M47.8999 3.19941V0.399414C48.0999 0.399414 48.2999 0.399414 48.4999 0.399414C51.9999 0.399414 55.5999 0.399414 59.0999 0.399414C60.5999 0.399414 61.6999 1.49941 61.7999 2.99941C61.7999 3.29941 61.7999 3.69941 61.7999 3.99941C61.7999 4.59941 61.6999 5.09941 61.2999 5.59941C61.0999 5.79941 61.0999 5.89941 61.2999 6.19941C62.0999 7.49941 61.9999 8.79941 61.3999 10.0994C60.9999 10.8994 60.2999 11.2994 59.3999 11.2994C55.6999 11.2994 51.9999 11.2994 48.2999 11.2994C48.1999 11.2994 48.0999 11.2994 47.9999 11.2994V4.49941H59.4999V3.19941H47.8999ZM59.3999 7.19941H50.0999C50.0999 7.39941 50.0999 7.59941 50.0999 7.69941C50.0999 8.19941 50.2999 8.39941 50.8999 8.49941C53.3999 8.49941 55.8999 8.49941 58.3999 8.49941C59.1999 8.39941 59.4999 7.99941 59.3999 7.19941Z" fill="#0B0B0B"/>
<path d="M46.1003 11.1994C45.3003 11.1994 44.6003 11.1994 43.9003 11.1994C43.5003 11.1994 43.4003 10.8994 43.3003 10.6994C42.6003 9.59941 41.9003 8.49941 41.1003 7.39941C41.0003 7.29941 40.8003 7.09941 40.7003 7.09941C38.7003 7.09941 36.7003 7.09941 34.6003 7.09941V11.1994C33.9003 11.1994 33.2003 11.1994 32.5003 11.1994C32.4003 11.1994 32.3003 10.8994 32.3003 10.7994C32.3003 9.49941 32.3003 8.29941 32.3003 6.99941C32.3003 6.39941 32.3003 5.89941 32.3003 5.29941C32.3003 4.79941 32.6003 4.49941 33.1003 4.49941C34.8003 4.49941 36.5003 4.49941 38.3003 4.49941C40.0003 4.49941 41.7003 4.49941 43.5003 4.49941C43.9003 4.49941 44.1003 4.39941 44.1003 3.99941C44.1003 3.79941 44.1003 3.59941 44.1003 3.29941H32.3003V0.399414H32.9003C36.4003 0.399414 39.8003 0.399414 43.3003 0.399414C44.9003 0.399414 45.9003 1.19941 46.1003 2.79941C46.2003 3.49941 46.2003 4.29941 46.1003 4.99941C46.0003 6.29941 45.1003 6.99941 43.6003 7.19941C44.5003 8.49941 45.3003 9.79941 46.1003 11.1994Z" fill="#0B0B0B"/>
<path d="M17 11.1998C17.5 10.4998 17.9 9.9998 18.3 9.3998C20.2 6.7998 22.1 4.1998 24 1.6998C24.2 1.3998 24.4 1.1998 24.6 0.899805C25 0.499805 25.4 0.299805 26 0.299805C27.5 0.299805 28.9 0.299805 30.4 0.299805V11.0998C29.6 11.0998 28.9 11.0998 28.1 11.0998C28 11.0998 27.9 10.8998 27.9 10.7998C27.9 10.2998 27.9 9.8998 27.9 9.3998C27.9 8.9998 27.8 8.7998 27.4 8.8998C25.5 8.8998 23.5 8.8998 21.6 8.8998C21.4 8.8998 21.1 8.9998 21 9.1998C20.6 9.6998 20.2 10.2998 19.8 10.7998C19.7 10.9998 19.4 11.0998 19.2 11.0998C18.6 11.1998 17.8 11.1998 17 11.1998ZM23.3 6.4998C24.9 6.4998 26.3 6.4998 27.8 6.4998C27.9 6.4998 28 6.2998 28 6.1998C28 5.1998 28 4.2998 28 3.2998C28 3.1998 27.9 2.9998 27.8 2.9998C27.1 2.9998 26.4 2.9998 25.7 2.9998C25.6 2.9998 25.6 3.0998 25.6 3.0998C24.9 4.1998 24.1 5.1998 23.3 6.4998Z" fill="#0B0B0B"/>
<path d="M15.6001 0.399805C15.6001 1.1998 15.6001 2.0998 15.6001 2.8998C15.6001 3.1998 15.4001 3.1998 15.2001 3.1998C13.3001 3.1998 11.4001 3.1998 9.5001 3.1998C8.2001 3.1998 5.7001 3.1998 4.4001 3.1998C3.4001 3.1998 3.0001 3.4998 2.9001 4.4998C2.8001 5.3998 2.8001 6.2998 2.9001 7.1998C3.0001 7.9998 3.4001 8.3998 4.2001 8.3998C6.7001 8.3998 10.3001 8.3998 12.8001 8.3998C13.6001 8.3998 14.4001 8.3998 15.2001 8.3998C15.4001 8.3998 15.6001 8.3998 15.6001 8.6998C15.6001 9.4998 15.6001 10.2998 15.6001 11.1998C14.8001 11.1998 14.0001 11.1998 13.2001 11.1998C10.3001 11.1998 6.4001 11.0998 3.5001 11.1998C1.8001 11.1998 0.600098 10.0998 0.600098 8.6998C0.600098 6.5998 0.600098 4.5998 0.700098 2.4998C0.800098 1.2998 2.0001 0.299805 3.2001 0.299805C6.9001 0.299805 11.7001 0.299805 15.4001 0.299805C15.4001 0.399805 15.5001 0.399805 15.6001 0.399805Z" fill="#0B0B0B"/>
</svg>
