<svg class="svg-question-mark" width="18" height="18" viewBox="0 0 18 18" fill="none" xmlns="http://www.w3.org/2000/svg">
<path fill-rule="evenodd" clip-rule="evenodd" d="M6.55 6.56211C6.55 5.54038 7.37827 4.71211 8.4 4.71211H10.0618C10.8285 4.71211 11.45 5.33363 11.45 6.10032C11.45 6.60978 11.1709 7.07831 10.723 7.32096L10.0234 7.69988C8.68425 8.42527 7.85 9.82593 7.85 11.3489V12.1121H10.15V11.3489C10.15 10.67 10.5219 10.0456 11.1189 9.72225L11.8184 9.34333C13.0086 8.69866 13.75 7.45387 13.75 6.10032C13.75 4.06338 12.0987 2.41211 10.0618 2.41211H8.4C6.10802 2.41211 4.25 4.27013 4.25 6.56211V6.71211V7.61211H6.55V6.71211V6.56211ZM7.85 13.4621V15.7121H10.15V13.4621H7.85Z" fill="#0B0B0B"/>
</svg>
