<?xml version="1.0" encoding="utf-8"?>
<!-- Generator: Adobe Illustrator 27.2.0, SVG Export Plug-In . SVG Version: 6.00 Build 0)  -->
<svg version="1.1" class="svg-user" xmlns="http://www.w3.org/2000/svg" xmlns:xlink="http://www.w3.org/1999/xlink" x="0px" y="0px"
	 width="24px" height="24px" viewBox="0 0 24 24" enable-background="new 0 0 24 24" xml:space="preserve">
<path id="body" fill-rule="evenodd" clip-rule="evenodd" fill="#0B0B0B" d="M10,10H7.5C6.7,10,6,10.7,6,11.5V22h6h6V11.5
	c0-0.8-0.7-1.5-1.5-1.5H14l-2,2L10,10z"/>
<path id="head" fill="#0B0B0B" d="M12,2L12,2c1.7,0,3,1.3,3,3l0,0c0,1.7-1.3,3-3,3l0,0c-1.7,0-3-1.3-3-3l0,0C9,3.3,10.3,2,12,2z"/>
</svg>
